<?xml version="1.0" encoding="UTF-8"?>
<svg xmlns="http://www.w3.org/2000/svg" xmlns:xlink="http://www.w3.org/1999/xlink" viewBox="0 0 1625.25 967.45">
  <defs>
    <style>
      .cls-1 {
        fill: none;
      }

      .cls-2 {
        fill: #fff;
      }

      .cls-3 {
        fill: url(#Nepojmenovaný_přechod_8);
      }
    </style>
    <linearGradient id="Nepojmenovaný_přechod_8" data-name="Nepojmenovaný přechod 8" x1="-40.1" y1="881.38" x2="1665.42" y2="86.08" gradientUnits="userSpaceOnUse">
      <stop offset=".25" stop-color="#140757"/>
      <stop offset=".29" stop-color="#270852"/>
      <stop offset=".43" stop-color="#6c0f42"/>
      <stop offset=".55" stop-color="#a31435"/>
      <stop offset=".66" stop-color="#cb182b"/>
      <stop offset=".75" stop-color="#e41b26"/>
      <stop offset=".8" stop-color="#ed1c24"/>
    </linearGradient>
  </defs>
  <g id="preview">
    <rect class="cls-3" x=".03" width="1625.25" height="967.45"/>
  </g>
  <g id="logo">
    <path class="cls-2" d="M362.76,690.72h19.49v-99.9l-54.68,72.65-54.68-72.65v99.9h19.48v-43.88l35.2,47.75,35.19-47.75v43.88ZM479.33,642.71c0,17.04-13.65,30.85-30.54,30.85s-30.53-13.81-30.53-30.85,13.67-30.85,30.53-30.85,30.54,13.8,30.54,30.85M499.83,642.71c0-27.71-22.86-50.19-51.05-50.19s-51.02,22.48-51.02,50.19,22.87,50.19,51.02,50.19,51.05-22.48,51.05-50.19M532.08,631.39l75.74,63.2v-99.88h-19.49v59.34l-75.74-63.22v99.9h19.49v-59.33ZM627.1,690.72h73.89v-17.58h-53.83v-21.87h51.53v-17.13h-51.53v-21.52h53.83v-17.92h-73.89v96.02ZM797.46,612.62l10.44-17.92h-95.88v17.92h28.92v78.09h20.05v-78.09h36.47ZM846.51,656.61h-31.5l15.7-27.99,15.81,27.99ZM865.86,690.71h22.15l-57.15-99.88-57.13,99.88h22.1l10.32-18.39h49.33l10.38,18.39ZM1000.74,661.7c0,6.69-5.38,12.08-14.29,12.08h-29.41v-24.16h29.41c8.9,0,14.29,5.39,14.29,12.08M998.01,622.6c0,5.9-4.78,10.79-13.01,10.79h-27.95v-21.54h27.95c8.23,0,13.01,4.82,13.01,10.75M1006.39,639.4c6.61-3.5,11.33-10.27,11.33-19.14,0-14.62-11.39-25.57-29.58-25.57h-51.12v96.02h52.93c18.27,0,31.32-13,31.32-29.06,0-11.27-5.86-18.94-14.87-22.26M1095.17,656.61h-31.55l15.75-28.01,15.79,28.01ZM1114.53,690.72h22.18l-57.23-99.9-57.16,99.9h22.14l10.31-18.38h49.38l10.38,18.38ZM1166.1,631.4l75.69,63.18v-99.89h-19.45v59.31l-75.76-63.18v99.89h19.52v-59.31ZM1308.89,633.29l41.09-38.6h-27.16l-42.45,39.87v-39.87h-20.02v96.03h20.02v-30.73l14.06-13.11,33.52,43.84h24.84l-43.89-57.43Z"/>
    <path class="cls-2" d="M812.85,388.07l-119.31-115.36v273.09l118.74-114.83h-.01l22.49-21.71-.02-.02,66.93-64.73v129.47l-45-43.54-21.95,21.16,97.41,94.18v-273.09l-119.29,115.36ZM724,473.99v-129.47l66.93,64.73-66.93,64.74Z"/>
  </g>
  <g id="measures">
    <rect class="cls-1" x="98.28" y="100.56" width="173.81" height="172.1"/>
    <rect class="cls-1" x="98.25" y="694.79" width="173.81" height="172.1"/>
    <rect class="cls-1" x="1353.2" y="100.56" width="173.81" height="172.1"/>
    <rect class="cls-1" x="1353.17" y="694.79" width="173.81" height="172.1"/>
  </g>
</svg>